<svg width="48" height="48" viewBox="0 0 48 48" fill="none" xmlns="http://www.w3.org/2000/svg">
<path d="M15.9141 4.25C9.48286 4.25 4.25 9.48595 4.25 15.9188V32.5844C4.25 39.0164 9.48595 44.25 15.9188 44.25H32.5844C39.0164 44.25 44.25 39.014 44.25 32.5812V15.9141C44.25 9.48286 39.014 4.25 32.5812 4.25H15.9141ZM36.25 10.65C37.1332 10.65 37.85 11.3668 37.85 12.25C37.85 13.1332 37.1332 13.85 36.25 13.85C35.3668 13.85 34.65 13.1332 34.65 12.25C34.65 11.3668 35.3668 10.65 36.25 10.65ZM24.25 13.85C29.986 13.85 34.65 18.514 34.65 24.25C34.65 29.986 29.9852 34.65 24.25 34.65C18.514 34.65 13.85 29.9852 13.85 24.25C13.85 18.5148 18.514 13.85 24.25 13.85ZM24.25 17.05C20.2732 17.05 17.05 20.2732 17.05 24.25C17.05 28.2268 20.2732 31.45 24.25 31.45C28.2268 31.45 31.45 28.2268 31.45 24.25C31.45 20.2732 28.2268 17.05 24.25 17.05Z" fill="white" fill-opacity="0.7"/>
</svg>
