<svg width="48" height="48" viewBox="0 0 48 48" fill="none" xmlns="http://www.w3.org/2000/svg">
<path d="M23.9199 3.91998C34.966 3.91998 43.9199 12.8739 43.9199 23.92C43.9199 34.9661 34.966 43.92 23.9199 43.92C12.8738 43.92 3.91992 34.9661 3.91992 23.92C3.91992 12.8739 12.8738 3.91998 23.9199 3.91998ZM30.819 32.0722C31.1869 30.9435 32.9104 19.6948 33.1234 17.4782C33.1877 16.8069 32.9756 16.3609 32.5599 16.1617C32.0573 15.92 31.313 16.0409 30.4495 16.3522C29.2651 16.7791 14.1243 23.2078 13.2495 23.58C12.4199 23.9322 11.6356 24.3165 11.6356 24.873C11.6356 25.2643 11.8677 25.4843 12.5077 25.713C13.1738 25.9504 14.8512 26.4591 15.8417 26.7322C16.7956 26.9956 17.8817 26.7669 18.4904 26.3887C19.1356 25.9878 26.5817 21.0052 27.1164 20.5687C27.6504 20.1322 28.0764 20.6913 27.6399 21.1287C27.2034 21.5652 22.0921 26.5261 21.4182 27.213C20.5999 28.0469 21.1808 28.9113 21.7295 29.2574C22.3564 29.6522 26.8651 32.6765 27.5443 33.1617C28.2234 33.6469 28.9121 33.8669 29.5425 33.8669C30.173 33.8669 30.5051 33.0365 30.819 32.0722Z" fill="white" fill-opacity="0.7"/>
</svg>
