<svg width="48" height="48" viewBox="0 0 48 48" fill="none" xmlns="http://www.w3.org/2000/svg">
<path d="M42.679 13.5945C41.9349 10.9267 40.4617 8.81944 38.304 7.32864C35.5808 5.44179 32.4484 4.77672 29.7438 4.36946C26.0013 3.809 22.6122 3.73054 19.3793 4.12659C16.351 4.50023 14.0706 5.09431 11.991 6.05454C7.91362 7.93766 5.46573 10.9828 4.71796 15.104C4.35338 17.1067 4.10785 18.9151 3.96648 20.6412C3.6391 24.6317 3.93672 28.1625 4.87422 31.4355C5.78939 34.6264 7.38536 36.9056 9.75513 38.4038C10.3578 38.7849 11.1316 39.0614 11.8794 39.3267C12.3035 39.4762 12.7164 39.6219 13.055 39.7825C13.3675 39.9283 13.3675 39.9544 13.3637 40.216C13.3377 42.4839 13.3637 46.9302 13.3637 46.9302L13.3712 47.8792H15.0676L15.3429 47.6102C15.5252 47.4383 19.729 43.3582 21.2283 41.7142L21.4329 41.4863C21.6896 41.1874 21.6896 41.1874 21.9537 41.1837C23.9775 41.1426 26.0459 41.0641 28.0995 40.952C30.5883 40.8175 33.4715 40.5747 36.1872 39.4388C38.6723 38.3964 40.4878 36.7412 41.5778 34.5218C42.7162 32.2052 43.3895 29.6982 43.6425 26.8548C44.0889 21.8556 43.7727 17.5177 42.679 13.5945ZM33.7281 33.0347C33.1031 34.0547 32.1731 34.7646 31.0756 35.2242C30.2721 35.5605 29.4536 35.4895 28.6612 35.1532C22.0281 32.3323 16.8235 27.8898 13.386 21.5006C12.6755 20.1854 12.1844 18.7507 11.6189 17.3607C11.5036 17.0768 11.511 16.7405 11.459 16.4266C11.5073 14.1811 13.2223 12.9145 14.956 12.5334C15.6182 12.3839 16.206 12.6193 16.697 13.0938C18.0586 14.3941 19.1338 15.9073 19.9448 17.6036C20.2982 18.3471 20.1382 19.0047 19.5355 19.5577C19.4091 19.6735 19.2789 19.7782 19.1412 19.8828C17.7647 20.9215 17.5638 21.7098 18.2967 23.2754C19.5467 25.9394 21.6226 27.7291 24.3048 28.8388C25.0117 29.1302 25.6776 28.9845 26.217 28.4091C26.2914 28.3344 26.3733 28.2597 26.4254 28.17C27.4819 26.399 29.0184 26.5746 30.4357 27.5834C31.3658 28.2485 32.2698 28.9509 33.1887 29.6272C34.5912 30.6621 34.5801 31.6336 33.7281 33.0347ZM24.9298 15.3581C24.6173 15.3581 24.3048 15.3842 23.9961 15.4365C23.4752 15.5224 22.9879 15.1712 22.8986 14.6481C22.8131 14.1288 23.1627 13.6356 23.6836 13.5497C24.0928 13.4787 24.5132 13.445 24.9298 13.445C29.0555 13.445 32.4112 16.8152 32.4112 20.9588C32.4112 21.381 32.3777 21.8032 32.307 22.2105C32.2289 22.6776 31.8271 23.0101 31.3695 23.0101C31.3174 23.0101 31.2654 23.0064 31.2096 22.9951C30.6924 22.9092 30.3428 22.416 30.4283 21.8967C30.4804 21.5903 30.5064 21.2764 30.5064 20.9588C30.5064 17.8726 28.0027 15.3581 24.9298 15.3581ZM29.5541 21.0971C29.5541 21.6239 29.1262 22.0536 28.6017 22.0536C28.0771 22.0536 27.6493 21.6239 27.6493 21.0971C27.6493 19.5166 26.3658 18.2276 24.7922 18.2276C24.2676 18.2276 23.8398 17.7979 23.8398 17.2711C23.8398 16.7442 24.2676 16.3146 24.7922 16.3146C27.4187 16.3146 29.5541 18.4592 29.5541 21.0971ZM34.993 23.2231C34.8926 23.6677 34.4982 23.9666 34.063 23.9666C33.9923 23.9666 33.9216 23.9591 33.8509 23.9442C33.3375 23.8246 33.0176 23.3127 33.1329 22.7971C33.2705 22.1881 33.3412 21.5567 33.3412 20.9215C33.3412 16.2735 29.5727 12.4885 24.9447 12.4885C24.3123 12.4885 23.6836 12.5595 23.0772 12.6978C22.5638 12.8173 22.0541 12.4923 21.9388 11.9766C21.8197 11.461 22.1434 10.9491 22.6568 10.8333C23.4008 10.6615 24.1709 10.5755 24.9447 10.5755C30.6255 10.5755 35.246 15.2161 35.246 20.9215C35.246 21.6986 35.1604 22.4721 34.993 23.2231Z" fill="white" fill-opacity="0.7"/>
</svg>
