<svg width="48" height="48" viewBox="0 0 48 48" fill="none" xmlns="http://www.w3.org/2000/svg">
<g id="icon/instagram">
<g id="Group">
<g id="Group_2">
<path id="Vector" d="M15.9141 3.25C9.48286 3.25 4.25 8.48595 4.25 14.9188V31.5844C4.25 38.0164 9.48595 43.25 15.9188 43.25H32.5844C39.0164 43.25 44.25 38.014 44.25 31.5812V14.9141C44.25 8.48286 39.014 3.25 32.5812 3.25H15.9141ZM36.25 9.65C37.1332 9.65 37.85 10.3668 37.85 11.25C37.85 12.1332 37.1332 12.85 36.25 12.85C35.3668 12.85 34.65 12.1332 34.65 11.25C34.65 10.3668 35.3668 9.65 36.25 9.65ZM24.25 12.85C29.986 12.85 34.65 17.514 34.65 23.25C34.65 28.986 29.9852 33.65 24.25 33.65C18.514 33.65 13.85 28.9852 13.85 23.25C13.85 17.5148 18.514 12.85 24.25 12.85ZM24.25 16.05C20.2732 16.05 17.05 19.2732 17.05 23.25C17.05 27.2268 20.2732 30.45 24.25 30.45C28.2268 30.45 31.45 27.2268 31.45 23.25C31.45 19.2732 28.2268 16.05 24.25 16.05Z" fill="#859BBE"/>
</g>
</g>
</g>
</svg>
